<svg width="231" height="381" viewBox="0 0 231 381" fill="none" xmlns="http://www.w3.org/2000/svg">
<ellipse cx="115" cy="270.5" rx="106" ry="110.5" fill="var(--shade-dark)"/>
<ellipse cx="115.5" cy="289.5" rx="59.5" ry="67.5" fill="var(--shade-light)"/>
<g filter="url(#filter0_d_46_53)">
<ellipse cx="201" cy="77.5" rx="26" ry="31.5" fill="var(--shade-dark)"/>
<ellipse cx="30" cy="77.5" rx="26" ry="31.5" fill="var(--shade-dark)"/>
<circle cx="115" cy="106" r="103" fill="var(--shade-dark)"/>
<ellipse cx="114.5" cy="161" rx="58.5" ry="49" fill="var(--shade-light)"/>
<mask id="mask0_46_53" style="mask-type:alpha" maskUnits="userSpaceOnUse" x="56" y="112" width="117" height="98">
<ellipse cx="114.5" cy="161" rx="58.5" ry="49" fill="var(--shade-light)"/>
</mask>
<g mask="url(#mask0_46_53)">
<path d="M100 112C100 116.243 101.528 120.313 104.247 123.314C106.966 126.314 110.654 128 114.5 128C118.346 128 122.034 126.314 124.753 123.314C127.472 120.313 129 116.243 129 112L114.5 112L100 112Z" fill="black"/>
</g>
<ellipse cx="80" cy="102" rx="8" ry="16" fill="black"/>
<ellipse cx="153" cy="102" rx="8" ry="16" fill="black"/>
</g>
<defs>
<filter id="filter0_d_46_53" x="0" y="0" width="231" height="215" filterUnits="userSpaceOnUse" color-interpolation-filters="sRGB">
<feFlood flood-opacity="0" result="BackgroundImageFix"/>
<feColorMatrix in="SourceAlpha" type="matrix" values="0 0 0 0 0 0 0 0 0 0 0 0 0 0 0 0 0 0 127 0" result="hardAlpha"/>
<feOffset dy="1"/>
<feGaussianBlur stdDeviation="2"/>
<feComposite in2="hardAlpha" operator="out"/>
<feColorMatrix type="matrix" values="0 0 0 0 0 0 0 0 0 0 0 0 0 0 0 0 0 0 0.25 0"/>
<feBlend mode="normal" in2="BackgroundImageFix" result="effect1_dropShadow_46_53"/>
<feBlend mode="normal" in="SourceGraphic" in2="effect1_dropShadow_46_53" result="shape"/>
</filter>
</defs>
</svg>
