<svg width="231" height="375" viewBox="0 0 231 375" fill="none" xmlns="http://www.w3.org/2000/svg">
<ellipse cx="115" cy="264.5" rx="85" ry="110.5" fill="var(--shade-dark)"/>
<ellipse cx="115" cy="302.5" rx="48" ry="72.5" fill="var(--shade-light)"/>
<g filter="url(#filter0_d_46_51)">
<ellipse cx="201" cy="59.5" rx="26" ry="31.5" fill="var(--shade-dark)"/>
<ellipse cx="30" cy="59.5" rx="26" ry="31.5" fill="var(--shade-dark)"/>
<circle cx="117" cy="106" r="103" fill="var(--shade-dark)"/>
<ellipse cx="115.5" cy="150" rx="47.5" ry="59" fill="var(--shade-light)"/>
<circle cx="154.5" cy="101.5" r="39.5" fill="var(--shade-light)"/>
<circle cx="81.5" cy="101.5" r="39.5" fill="var(--shade-light)"/>
<ellipse cx="81" cy="102" rx="8" ry="16" fill="black"/>
<ellipse cx="154" cy="102" rx="8" ry="16" fill="black"/>
<mask id="path-11-inside-1_46_51" fill="white">
<path d="M129.682 137.938C128.98 135.147 127.155 132.64 124.508 130.832C121.862 129.025 118.553 128.025 115.131 128C111.71 127.976 108.38 128.926 105.696 130.695C103.012 132.464 101.134 134.944 100.374 137.724L101.728 137.981C102.418 135.458 104.122 133.208 106.557 131.603C108.993 129.998 112.014 129.135 115.119 129.157C118.224 129.18 121.227 130.087 123.628 131.727C126.03 133.367 127.686 135.643 128.323 138.176L129.682 137.938Z"/>
</mask>
<path d="M129.682 137.938C128.98 135.147 127.155 132.64 124.508 130.832C121.862 129.025 118.553 128.025 115.131 128C111.71 127.976 108.38 128.926 105.696 130.695C103.012 132.464 101.134 134.944 100.374 137.724L101.728 137.981C102.418 135.458 104.122 133.208 106.557 131.603C108.993 129.998 112.014 129.135 115.119 129.157C118.224 129.18 121.227 130.087 123.628 131.727C126.03 133.367 127.686 135.643 128.323 138.176L129.682 137.938Z" stroke="black" stroke-width="2" mask="url(#path-11-inside-1_46_51)"/>
</g>
<defs>
<filter id="filter0_d_46_51" x="0" y="0" width="231" height="214" filterUnits="userSpaceOnUse" color-interpolation-filters="sRGB">
<feFlood flood-opacity="0" result="BackgroundImageFix"/>
<feColorMatrix in="SourceAlpha" type="matrix" values="0 0 0 0 0 0 0 0 0 0 0 0 0 0 0 0 0 0 127 0" result="hardAlpha"/>
<feOffset dy="1"/>
<feGaussianBlur stdDeviation="2"/>
<feComposite in2="hardAlpha" operator="out"/>
<feColorMatrix type="matrix" values="0 0 0 0 0 0 0 0 0 0 0 0 0 0 0 0 0 0 0.25 0"/>
<feBlend mode="normal" in2="BackgroundImageFix" result="effect1_dropShadow_46_51"/>
<feBlend mode="normal" in="SourceGraphic" in2="effect1_dropShadow_46_51" result="shape"/>
</filter>
</defs>
</svg>
