<svg width="3500" height="561" viewBox="0 0 3500 561" fill="none" xmlns="http://www.w3.org/2000/svg">
<rect y="361" width="3500" height="200" fill="#E4D09A"/>
<path d="M1106 176C1106 167.163 1113.16 160 1122 160V160C1130.84 160 1138 167.163 1138 176V379H1106V176Z" fill="#699B73"/>
<path d="M1122.5 227.731C1122.5 230.641 1124.86 233.019 1127.76 232.816C1134.54 232.342 1141.13 230.955 1147.17 228.72C1154.76 225.91 1161.24 221.846 1166.05 216.885C1170.85 211.924 1173.83 206.218 1174.72 200.27C1175.35 196.053 1174.92 191.805 1173.46 187.715C1172.38 184.684 1168.98 183.381 1165.88 184.255V184.255C1161.44 185.51 1159.52 190.752 1159.81 195.362C1159.89 196.632 1159.83 197.909 1159.64 199.181C1159.01 203.413 1156.89 207.471 1153.48 211C1150.06 214.529 1145.45 217.42 1140.05 219.418C1136.2 220.84 1132.04 221.78 1127.76 222.204C1124.86 222.49 1122.5 224.821 1122.5 227.731V227.731Z" fill="#699B73"/>
<path d="M1122.5 318.731C1122.5 321.641 1124.86 324.019 1127.76 323.816C1134.54 323.342 1141.13 321.955 1147.17 319.72C1154.76 316.91 1161.24 312.846 1166.05 307.885C1170.85 302.924 1173.83 297.218 1174.72 291.27C1175.35 287.053 1174.92 282.805 1173.46 278.715C1172.38 275.684 1168.98 274.381 1165.88 275.255V275.255C1161.44 276.51 1159.52 281.752 1159.81 286.362C1159.89 287.632 1159.83 288.909 1159.64 290.181C1159.01 294.413 1156.89 298.471 1153.48 302C1150.06 305.529 1145.45 308.42 1140.05 310.418C1136.2 311.84 1132.04 312.78 1127.76 313.204C1124.86 313.49 1122.5 315.821 1122.5 318.731V318.731Z" fill="#699B73"/>
<path d="M1116.5 280.061C1116.5 284.445 1112.93 288.052 1108.58 287.494C1099.71 286.354 1091.2 283.309 1083.72 278.554C1076.59 274.016 1070.64 268.074 1066.26 261.18C1063.71 257.159 1065.91 252.06 1070.37 250.381V250.381C1074.57 248.8 1079.19 250.878 1081.77 254.547C1084.76 258.814 1088.63 262.509 1093.18 265.402C1097.86 268.378 1103.11 270.412 1108.6 271.411C1112.92 272.195 1116.5 275.676 1116.5 280.061V280.061Z" fill="#699B73"/>
<path d="M234 191.5C234 179.074 244.074 169 256.5 169V169C268.926 169 279 179.074 279 191.5V387.684H234V191.5Z" fill="#699B73"/>
<path d="M260.5 271.061C260.5 275.445 264.069 279.052 268.418 278.494C275.242 277.617 281.869 275.612 287.986 272.551C296.447 268.317 303.673 262.193 309.026 254.717C314.38 247.242 317.697 238.644 318.687 229.68C319.384 223.367 318.912 217.008 317.312 210.882C316.179 206.546 311.402 204.571 307.216 206.169V206.169C302.766 207.867 300.733 212.942 301.556 217.632C302.157 221.06 302.273 224.56 301.888 228.04C301.184 234.416 298.825 240.532 295.017 245.849C291.209 251.167 286.069 255.523 280.051 258.534C276.38 260.371 272.451 261.674 268.397 262.411C264.083 263.195 260.5 266.676 260.5 271.061V271.061Z" fill="#699B73"/>
<path d="M246.5 297.061C246.5 301.445 242.931 305.052 238.582 304.494C229.709 303.354 221.195 300.309 213.719 295.554C206.585 291.016 200.637 285.074 196.262 278.18C193.71 274.159 195.915 269.06 200.371 267.381V267.381C204.566 265.8 209.194 267.878 211.769 271.547C214.764 275.814 218.635 279.509 223.183 282.402C227.861 285.378 233.111 287.412 238.603 288.411C242.917 289.195 246.5 292.676 246.5 297.061V297.061Z" fill="#699B73"/>
<path d="M1818.43 214.356C1818.43 204.77 1826.2 197 1835.79 197V197C1845.38 197 1853.15 204.77 1853.15 214.356V365.684H1818.43V214.356Z" fill="#699B73"/>
<path d="M1838.88 275.726C1838.88 279.108 1841.63 281.89 1844.98 281.459C1850.25 280.783 1855.36 279.236 1860.08 276.875C1866.6 273.609 1872.18 268.885 1876.31 263.119C1880.44 257.353 1883 250.721 1883.76 243.806C1884.3 238.936 1883.93 234.031 1882.7 229.306C1881.82 225.961 1878.14 224.438 1874.91 225.671V225.671C1871.48 226.981 1869.91 230.895 1870.54 234.513C1871.01 237.157 1871.1 239.857 1870.8 242.541C1870.26 247.46 1868.44 252.177 1865.5 256.278C1862.56 260.38 1858.6 263.74 1853.96 266.063C1851.12 267.48 1848.09 268.485 1844.97 269.053C1841.64 269.658 1838.88 272.343 1838.88 275.726V275.726Z" fill="#699B73"/>
<path d="M1828.08 295.781C1828.08 299.163 1825.32 301.945 1821.97 301.515C1815.12 300.636 1808.56 298.287 1802.79 294.619C1797.29 291.118 1792.7 286.535 1789.32 281.217C1787.36 278.115 1789.06 274.182 1792.49 272.887V272.887C1795.73 271.668 1799.3 273.27 1801.29 276.101C1803.6 279.392 1806.58 282.243 1810.09 284.474C1813.7 286.769 1817.75 288.339 1821.99 289.109C1825.31 289.713 1828.08 292.399 1828.08 295.781V295.781Z" fill="#699B73"/>
<path d="M599 257C599 248.716 605.716 242 614 242V242C622.284 242 629 248.716 629 257V388H599V257Z" fill="#699B73"/>
<path d="M618.5 337.39C618.5 343.802 623.743 349.111 630.043 347.919C638.059 346.402 645.692 343.313 652.424 338.808C658.671 334.628 663.946 329.359 667.989 323.328C671.863 317.55 668.275 310.218 661.661 308.063V308.063C655.395 306.021 648.766 309.538 644.373 314.451C642.546 316.494 640.441 318.325 638.101 319.891C635.564 321.589 632.805 322.938 629.908 323.915C623.832 325.963 618.5 330.978 618.5 337.39V337.39Z" fill="#699B73"/>
<path d="M621.5 321.176C621.5 325.497 617.988 329.041 613.689 328.61C608.136 328.054 602.705 326.906 597.568 325.193C590.04 322.684 583.312 319.019 577.824 314.44C572.336 309.86 568.213 304.469 565.725 298.621C564.561 295.885 563.767 293.079 563.349 290.242C562.546 284.798 567.642 280.871 573.124 281.342V281.342C579.165 281.862 583.33 287.666 585.547 293.308C585.625 293.506 585.705 293.704 585.789 293.901C587.382 297.645 590.022 301.097 593.536 304.029C597.05 306.961 601.358 309.307 606.177 310.914C608.6 311.722 611.125 312.333 613.707 312.742C617.976 313.417 621.5 316.854 621.5 321.176V321.176Z" fill="#699B73"/>
<path d="M1560.17 274.524C1560.17 268.712 1564.88 264 1570.69 264V264C1576.51 264 1581.22 268.712 1581.22 274.524V366.435H1560.17V274.524Z" fill="#699B73"/>
<path d="M1573.85 330.927C1573.85 335.426 1577.53 339.151 1581.95 338.314C1587.57 337.25 1592.93 335.083 1597.65 331.922C1602.04 328.989 1605.74 325.292 1608.57 321.061C1611.29 317.007 1608.77 311.863 1604.13 310.351V310.351C1599.74 308.918 1595.09 311.386 1592 314.833C1590.72 316.266 1589.25 317.55 1587.6 318.649C1585.82 319.841 1583.89 320.788 1581.85 321.473C1577.59 322.91 1573.85 326.428 1573.85 330.927V330.927Z" fill="#699B73"/>
<path d="M1575.96 319.551C1575.96 322.583 1573.49 325.069 1570.47 324.767C1566.58 324.377 1562.77 323.571 1559.16 322.37C1553.88 320.609 1549.16 318.038 1545.31 314.825C1541.46 311.611 1538.57 307.829 1536.82 303.726C1536.01 301.807 1535.45 299.837 1535.16 297.847C1534.59 294.028 1538.17 291.273 1542.01 291.603V291.603C1546.25 291.967 1549.18 296.04 1550.73 299.999C1550.78 300.138 1550.84 300.276 1550.9 300.414C1552.02 303.041 1553.87 305.463 1556.34 307.52C1558.8 309.578 1561.82 311.224 1565.2 312.351C1566.9 312.918 1568.68 313.347 1570.49 313.633C1573.48 314.107 1575.96 316.519 1575.96 319.551V319.551Z" fill="#699B73"/>
<path d="M-17 45.5C-17 33.0736 -6.92641 23 5.5 23V23C17.9264 23 28 33.0736 28 45.5V446H-17V45.5Z" fill="#699B73"/>
<path d="M5.5 238.39C5.5 244.802 10.7427 250.111 17.043 248.919C25.0592 247.402 32.6919 244.313 39.4236 239.808C45.6706 235.628 50.9459 230.359 54.9893 224.328C58.863 218.55 55.2752 211.218 48.6611 209.063V209.063C42.3948 207.021 35.7659 210.538 31.3728 215.451C29.5456 217.494 27.4415 219.325 25.1014 220.891C22.5641 222.589 19.8053 223.938 16.908 224.915C10.8318 226.963 5.5 231.978 5.5 238.39V238.39Z" fill="#699B73"/>
<path d="M2276 201.5C2276 189.074 2265.93 179 2253.5 179V179C2241.07 179 2231 189.074 2231 201.5V397.684H2276V201.5Z" fill="#699B73"/>
<path d="M2249.5 281.061C2249.5 285.445 2245.93 289.052 2241.58 288.494C2234.76 287.617 2228.13 285.612 2222.01 282.551C2213.55 278.317 2206.33 272.193 2200.97 264.717C2195.62 257.242 2192.3 248.644 2191.31 239.68C2190.62 233.367 2191.09 227.008 2192.69 220.882C2193.82 216.546 2198.6 214.571 2202.78 216.169V216.169C2207.23 217.867 2209.27 222.942 2208.44 227.632C2207.84 231.06 2207.73 234.56 2208.11 238.04C2208.82 244.416 2211.18 250.532 2214.98 255.849C2218.79 261.167 2223.93 265.523 2229.95 268.534C2233.62 270.371 2237.55 271.674 2241.6 272.411C2245.92 273.195 2249.5 276.676 2249.5 281.061V281.061Z" fill="#699B73"/>
<path d="M2263.5 307.061C2263.5 311.445 2267.07 315.052 2271.42 314.494C2280.29 313.354 2288.8 310.309 2296.28 305.554C2303.41 301.016 2309.36 295.074 2313.74 288.18C2316.29 284.159 2314.09 279.06 2309.63 277.381V277.381C2305.43 275.8 2300.81 277.878 2298.23 281.547C2295.24 285.814 2291.37 289.509 2286.82 292.402C2282.14 295.378 2276.89 297.412 2271.4 298.411C2267.08 299.195 2263.5 302.676 2263.5 307.061V307.061Z" fill="#699B73"/>
<path d="M2612 207.8C2612 200.731 2606.27 195 2599.2 195V195C2592.13 195 2586.4 200.731 2586.4 207.8V370.2H2612V207.8Z" fill="#699B73"/>
<path d="M2598.8 289.185C2598.8 291.513 2596.91 293.416 2594.59 293.253C2589.17 292.873 2583.9 291.764 2579.07 289.976C2572.99 287.728 2567.8 284.477 2563.96 280.508C2560.12 276.539 2557.74 271.975 2557.02 267.216C2556.52 263.842 2556.87 260.444 2558.03 257.172C2558.9 254.747 2561.62 253.705 2564.09 254.404V254.404C2567.65 255.408 2569.19 259.601 2568.95 263.29C2568.89 264.306 2568.93 265.327 2569.09 266.345C2569.59 269.73 2571.29 272.977 2574.02 275.8C2576.75 278.623 2580.44 280.936 2584.76 282.535C2587.84 283.672 2591.16 284.424 2594.59 284.763C2596.91 284.992 2598.8 286.857 2598.8 289.185V289.185Z" fill="#699B73"/>
<path d="M2603.6 291.048C2603.6 294.556 2606.46 297.442 2609.93 296.995C2617.03 296.083 2623.84 293.647 2629.82 289.843C2635.53 286.213 2640.29 281.459 2643.79 275.944C2645.83 272.727 2644.07 268.648 2640.5 267.305V267.305C2637.15 266.04 2633.45 267.702 2631.38 270.638C2628.99 274.051 2625.89 277.007 2622.25 279.322C2618.51 281.702 2614.31 283.33 2609.92 284.128C2606.47 284.756 2603.6 287.541 2603.6 291.048V291.048Z" fill="#699B73"/>
<path d="M3089 253C3089 244.716 3095.72 238 3104 238V238C3112.28 238 3119 244.716 3119 253V384H3089V253Z" fill="#699B73"/>
<path d="M3108.5 333.39C3108.5 339.802 3113.74 345.111 3120.04 343.919C3128.06 342.402 3135.69 339.313 3142.42 334.808C3148.67 330.628 3153.95 325.359 3157.99 319.328C3161.86 313.55 3158.28 306.218 3151.66 304.063V304.063C3145.39 302.021 3138.77 305.538 3134.37 310.451C3132.55 312.494 3130.44 314.325 3128.1 315.891C3125.56 317.589 3122.81 318.938 3119.91 319.915C3113.83 321.963 3108.5 326.978 3108.5 333.39V333.39Z" fill="#699B73"/>
<path d="M3111.5 317.176C3111.5 321.497 3107.99 325.041 3103.69 324.61C3098.14 324.054 3092.71 322.906 3087.57 321.193C3080.04 318.684 3073.31 315.019 3067.82 310.44C3062.34 305.86 3058.21 300.469 3055.72 294.621C3054.56 291.885 3053.77 289.079 3053.35 286.242C3052.55 280.798 3057.64 276.871 3063.12 277.342V277.342C3069.16 277.862 3073.33 283.666 3075.55 289.308C3075.62 289.506 3075.71 289.704 3075.79 289.901C3077.38 293.645 3080.02 297.097 3083.54 300.029C3087.05 302.961 3091.36 305.307 3096.18 306.914C3098.6 307.722 3101.12 308.333 3103.71 308.742C3107.98 309.417 3111.5 312.854 3111.5 317.176V317.176Z" fill="#699B73"/>
<path d="M3469 41.5C3469 29.0736 3479.07 19 3491.5 19V19C3503.93 19 3514 29.0736 3514 41.5V442H3469V41.5Z" fill="#699B73"/>
<path d="M3524.5 237.172C3524.5 245.913 3517.4 253.083 3508.7 252.214C3497.44 251.089 3486.43 248.766 3476.02 245.299C3460.77 240.223 3447.14 232.809 3436.03 223.544C3424.91 214.28 3416.56 203.374 3411.52 191.543C3409.16 186.015 3407.56 180.344 3406.71 174.612C3405.08 163.589 3415.4 155.636 3426.5 156.589V156.589C3438.74 157.639 3447.18 169.402 3451.68 180.829C3451.84 181.219 3452 181.607 3452.16 181.995C3455.39 189.57 3460.74 196.552 3467.85 202.484C3474.97 208.415 3483.7 213.162 3493.46 216.413C3498.38 218.049 3503.5 219.287 3508.74 220.113C3517.37 221.476 3524.5 228.43 3524.5 237.172V237.172Z" fill="#699B73"/>
</svg>
