<svg width="3500" height="626" viewBox="0 0 3500 626" fill="none" xmlns="http://www.w3.org/2000/svg">
<rect y="426" width="3500" height="200" fill="#74A352"/>
<ellipse cx="1212" cy="103" rx="181" ry="63" fill="#3F8768"/>
<ellipse cx="1411" cy="63" rx="181" ry="63" fill="#3F8768"/>
<ellipse cx="1719" cy="80" rx="181" ry="63" fill="#3F8768"/>
<ellipse cx="1900" cy="103" rx="181" ry="63" fill="#3F8768"/>
<ellipse cx="1438" cy="126" rx="181" ry="63" fill="#3F8768"/>
<ellipse cx="1750" cy="140" rx="181" ry="63" fill="#3F8768"/>
<ellipse cx="1144" cy="166" rx="181" ry="63" fill="#3F8768"/>
<ellipse cx="1644" cy="166" rx="181" ry="63" fill="#3F8768"/>
<path d="M1084 492.5C1084 492.5 1228.29 454.305 1265 379.5C1295.63 317.097 1265 201.5 1265 201.5L1225 118.5L1265 164.5L1286.5 81.9999V164.5C1286.5 164.5 1384.5 87.9999 1400 81.9999C1415.5 75.9999 1317 164.5 1317 164.5L1599 81.9999L1357 164.5L1899.5 81.9999C1899.5 81.9999 1738.21 131.864 1632 150.5C1595.25 156.947 1544 164.5 1537.5 164.5C1531 164.5 1401.5 193 1384.5 201.5C1367.5 210 1389.73 322.206 1433.5 379.5C1478.74 438.72 1599 474.5 1599 474.5C1599 474.5 1514.64 469.273 1461 474.5C1419.98 478.497 1397.53 500.026 1357 492.5C1327.03 486.934 1316.85 461.873 1286.5 459C1248.43 455.396 1232.08 485.457 1194.5 492.5C1152.09 500.449 1084 492.5 1084 492.5Z" fill="#685215"/>
<path d="M1850 289C1850 289 1838.49 297.461 1830.19 298.625C1818.44 300.274 1801 289 1801 289C1801 289 1815.82 336.134 1815.6 367.552C1815.38 397.788 1801 443 1801 443L1817.68 437.101L1850 443C1850 443 1836.19 390.218 1836.97 349.234C1837.75 308.25 1850 289 1850 289Z" fill="#685215"/>
<ellipse cx="1759.5" cy="263" rx="90.5" ry="34" fill="#3F8768"/>
<ellipse cx="1874.5" cy="282" rx="90.5" ry="34" fill="#3F8768"/>
<ellipse cx="1862.5" cy="229" rx="90.5" ry="34" fill="#3F8768"/>
<ellipse cx="2354.5" cy="229" rx="90.5" ry="34" fill="#3F8768"/>
<ellipse cx="2354.5" cy="189" rx="90.5" ry="34" fill="#3F8768"/>
<ellipse cx="2510.5" cy="201" rx="90.5" ry="34" fill="#3F8768"/>
<ellipse cx="2484.5" cy="235" rx="90.5" ry="34" fill="#3F8768"/>
<ellipse cx="2456.5" cy="151" rx="90.5" ry="34" fill="#3F8768"/>
<ellipse cx="143.413" cy="49.9173" rx="143.413" ry="49.9173" transform="matrix(-1 0 0 1 3043.11 135)" fill="#3F8768"/>
<ellipse cx="143.413" cy="49.9173" rx="143.413" ry="49.9173" transform="matrix(-1 0 0 1 2923.05 152.917)" fill="#3F8768"/>
<ellipse cx="143.413" cy="49.9173" rx="143.413" ry="49.9173" transform="matrix(-1 0 0 1 3156 184.611)" fill="#3F8768"/>
<ellipse cx="120.5" cy="50" rx="120.5" ry="50" transform="matrix(-1 0 0 1 2951.29 185)" fill="#3F8768"/>
<path d="M3063 443C3063 443 3016.94 434.217 3005.91 387.997C2996.71 349.441 3005.91 278.016 3005.91 278.016L3016.5 262L3005.91 255.155H3002.5H2999.45C2999.45 255.155 2986.16 231.207 2981.5 227.5C2976.84 223.793 2990.29 255.155 2990.29 255.155L2954.5 225L2978.27 255.155L2868 227.5C2868 227.5 2863.74 234.99 2895.65 246.505C2906.69 250.488 2922.09 255.155 2924.04 255.155C2925.99 255.155 2964.9 272.764 2970.01 278.016C2975.11 283.268 2968.44 352.597 2955.29 387.997C2941.69 424.588 2894 440 2894 440C2894 440 2930.91 443.466 2947.02 446.695C2959.35 449.165 2978.32 454.15 2990.5 449.5C2999.5 446.061 2996.79 448.47 3005.91 446.695C3017.34 444.469 3009.21 442.344 3020.5 446.695C3033.24 451.607 3063 443 3063 443Z" fill="#685215"/>
<ellipse cx="3281.5" cy="223" rx="90.5" ry="34" fill="#3F8768"/>
<ellipse cx="3429.5" cy="203" rx="90.5" ry="34" fill="#3F8768"/>
<ellipse cx="3335.5" cy="185" rx="90.5" ry="34" fill="#3F8768"/>
<ellipse cx="143.413" cy="49.9173" rx="143.413" ry="49.9173" transform="matrix(-1 0 0 1 786.827 144)" fill="#3F8768"/>
<ellipse cx="106" cy="50" rx="106" ry="50" transform="matrix(-1 0 0 1 829 124)" fill="#3F8768"/>
<ellipse cx="143.413" cy="49.9173" rx="143.413" ry="49.9173" transform="matrix(-1 0 0 1 858 173.611)" fill="#3F8768"/>
<path d="M762 446.817C762 446.817 717.06 423.217 705.625 376.997C696.085 338.441 705.625 267.016 705.625 267.016L744.5 244.155H705.625L727.583 224L698.928 244.155C698.928 244.155 703.756 222.707 698.928 219C694.101 215.293 689.429 244.155 689.429 244.155L665 213.5L676.97 244.155L629 219C629 219 611.496 236.985 644.578 248.5C656.023 252.484 624.001 239.81 620.75 244.155C617.5 248.5 663.11 261.764 668.405 267.016C673.7 272.268 666.775 341.597 653.143 376.997C639.052 413.588 601.595 435.695 601.595 435.695C601.595 435.695 627.871 432.466 644.578 435.695C657.355 438.165 664.348 451.467 676.97 446.817C686.304 443.378 689.476 427.893 698.928 426.118C710.784 423.892 715.878 442.465 727.583 446.817C740.794 451.728 762 446.817 762 446.817Z" fill="#685215"/>
<path d="M420 256C420 256 392.513 267.317 372.702 268.875C344.652 271.08 303 256 303 256C303 256 338.397 319.05 337.851 361.077C337.326 401.521 303 462 303 462L342.829 454.109L420 462C420 462 387.015 391.395 388.882 336.573C390.749 281.75 420 256 420 256Z" fill="#685215"/>
<ellipse cx="361.5" cy="258" rx="90.5" ry="34" fill="#3F8768"/>
<ellipse cx="271.5" cy="248" rx="90.5" ry="34" fill="#3F8768"/>
<ellipse cx="212.5" cy="248" rx="90.5" ry="34" fill="#3F8768"/>
<ellipse cx="329.5" cy="210" rx="90.5" ry="34" fill="#3F8768"/>
<ellipse cx="231.5" cy="208" rx="90.5" ry="34" fill="#3F8768"/>
<ellipse cx="469.5" cy="228" rx="90.5" ry="34" fill="#3F8768"/>
<ellipse cx="437.5" cy="190" rx="90.5" ry="34" fill="#3F8768"/>
<ellipse cx="302.5" cy="180" rx="90.5" ry="34" fill="#3F8768"/>
<path d="M2375 235C2375 235 2391.44 248.625 2403.3 250.5C2420.08 253.155 2445 235 2445 235C2445 235 2423.82 310.905 2424.15 361.5C2424.46 410.191 2445 483 2445 483L2421.17 473.5L2375 483C2375 483 2394.73 398 2393.62 332C2392.5 266 2375 235 2375 235Z" fill="#685215"/>
<path d="M3318 214C3318 214 3334.45 227.625 3346.3 229.5C3363.08 232.155 3388 214 3388 214C3388 214 3366.82 289.905 3367.15 340.5C3367.46 389.191 3388 462 3388 462L3364.17 452.5L3318 462C3318 462 3337.73 377 3336.62 311C3335.5 245 3318 214 3318 214Z" fill="#685215"/>
</svg>
